<svg width="49" height="42" viewBox="0 0 49 42" fill="none" xmlns="http://www.w3.org/2000/svg">
<path fill-rule="evenodd" clip-rule="evenodd" d="M15.4334 34.668H20.7349C19.4795 32.3711 17.9997 29.5633 16.9766 27.166C16.5755 27.2688 16.1609 27.3089 15.7476 27.2848L14.4434 31.6094C14.9233 31.9381 15.2808 32.4165 15.4599 32.9699C15.639 33.5233 15.6297 34.1205 15.4334 34.668Z" fill="#004348"/>
<path fill-rule="evenodd" clip-rule="evenodd" d="M3.32412 8.81543C3.09996 8.92505 2.86123 9.00196 2.61523 9.0438C4.51219 18.0916 8.49752 27.1962 11.1496 31.868C11.6367 31.406 12.2827 31.1489 12.9541 31.1499C13.0867 31.1501 13.2191 31.1603 13.3501 31.1803L14.2386 28.2299L14.459 27.4999L14.591 27.0444C14.01 26.828 13.488 26.4781 13.0669 26.0231C12.6458 25.568 12.3374 25.0204 12.1666 24.4244C11.9958 23.8284 11.9674 23.2006 12.0835 22.5915C12.1996 21.9825 12.4572 21.4093 12.8353 20.9179C9.71463 16.8587 6.49759 12.8456 3.32412 8.81543Z" fill="#56C4CF"/>
<path fill-rule="evenodd" clip-rule="evenodd" d="M12.0886 13.6741L6.21294 6.13379H4.78197C4.79531 6.23931 4.80193 6.34557 4.80177 6.45193C4.80225 7.04782 4.59972 7.6261 4.22754 8.09147L13.5724 20.1953C13.7522 20.056 13.9439 19.9327 14.1453 19.827C14.0925 19.6765 14.0384 19.526 13.9856 19.3742L12.0886 13.6741Z" fill="#47A4AD"/>
<path fill-rule="evenodd" clip-rule="evenodd" d="M25.4224 28.0487L19.6141 24.9307C19.3673 25.4867 18.9966 25.9789 18.5303 26.3696C19.5454 28.8368 20.7744 31.2539 22.0536 33.6023L22.0457 33.5864C22.5856 34.6148 23.1017 35.5375 23.5717 36.3362C24.1518 35.937 24.8397 35.7238 25.5439 35.725C25.7586 35.7254 25.9728 35.7449 26.1841 35.7831L27.1557 32.5594C26.3827 32.1313 25.7855 31.4442 25.4692 30.6191C25.1529 29.7941 25.1377 28.8838 25.4264 28.0487H25.4224ZM28.2487 32.9568L27.2758 36.187C27.8085 36.4922 28.2511 36.9328 28.5587 37.4642C28.8663 37.9955 29.0281 38.5987 29.0276 39.2126H42.0277C42.027 38.793 42.0948 38.3761 42.2284 37.9784L31.4895 32.0472C31.0575 32.4408 30.5395 32.7279 29.9768 32.8858C29.4142 33.0438 28.8224 33.068 28.2487 32.9568Z" fill="#00476C"/>
<path fill-rule="evenodd" clip-rule="evenodd" d="M32.2236 31.1307L42.7578 36.9496C42.9733 36.6508 43.2302 36.3841 43.5208 36.1576L18.2109 3.68359C17.8432 3.96785 17.407 4.15 16.9463 4.21163C17.0422 9.33002 17.1395 14.4489 17.238 19.5681C18.0991 19.8549 18.8356 20.4288 19.3241 21.1937C19.8126 21.9586 20.0236 22.8681 19.9218 23.77L25.9704 27.016C26.5435 26.255 27.3849 25.7408 28.3236 25.5777C29.2623 25.4147 30.2278 25.6152 31.024 26.1384C31.8202 26.6617 32.3873 27.4684 32.6101 28.3947C32.8329 29.321 32.6947 30.2974 32.2236 31.1255V31.1307Z" fill="#00ADEE"/>
<path fill-rule="evenodd" clip-rule="evenodd" d="M13.9274 1.58984H11.1367C12.0727 7.55397 13.802 13.6501 15.827 19.3753C15.9114 19.3753 15.9933 19.3753 16.0778 19.3753C15.981 14.2912 15.8842 9.20759 15.7874 4.1244C15.2477 3.9553 14.7762 3.61819 14.4416 3.16225C14.107 2.70631 13.9268 2.15539 13.9274 1.58984Z" fill="#60C3EE"/>
<path fill-rule="evenodd" clip-rule="evenodd" d="M2.17197 5.17826C2.42366 5.17826 2.6697 5.25289 2.87897 5.39272C3.08824 5.53255 3.25135 5.7313 3.34766 5.96383C3.44398 6.19636 3.46918 6.45223 3.42008 6.69908C3.37098 6.94593 3.24978 7.17268 3.07181 7.35065C2.89384 7.52862 2.66709 7.64982 2.42024 7.69892C2.17338 7.74802 1.91752 7.72282 1.68499 7.62651C1.45246 7.53019 1.25371 7.36708 1.11388 7.15781C0.974048 6.94854 0.899414 6.7025 0.899414 6.45082C0.899414 6.11331 1.03349 5.78963 1.27214 5.55098C1.51079 5.31233 1.83447 5.17826 2.17197 5.17826ZM45.9036 36.6952C46.4018 36.6949 46.8889 36.8424 47.3033 37.119C47.7177 37.3956 48.0407 37.7889 48.2316 38.2491C48.4224 38.7093 48.4725 39.2158 48.3754 39.7045C48.2784 40.1932 48.0386 40.6421 47.6864 40.9945C47.3342 41.3468 46.8854 41.5868 46.3968 41.6841C45.9082 41.7814 45.4017 41.7316 44.9414 41.541C44.4811 41.3504 44.0876 41.0276 43.8108 40.6134C43.534 40.1992 43.3862 39.7121 43.3862 39.2139C43.3862 38.5461 43.6514 37.9057 44.1235 37.4334C44.5956 36.9611 45.2359 36.6956 45.9036 36.6952ZM28.9643 26.887C29.4372 26.887 29.8994 27.0272 30.2925 27.2899C30.6857 27.5526 30.9921 27.926 31.173 28.3628C31.354 28.7996 31.4013 29.2803 31.3091 29.7441C31.2168 30.2078 30.9891 30.6338 30.6548 30.9681C30.3205 31.3025 29.8945 31.5302 29.4307 31.6224C28.967 31.7146 28.4863 31.6673 28.0495 31.4864C27.6126 31.3054 27.2393 30.999 26.9766 30.6059C26.7139 30.2127 26.5737 29.7505 26.5737 29.2777C26.5737 28.6436 26.8256 28.0355 27.2739 27.5872C27.7222 27.1389 28.3303 26.887 28.9643 26.887ZM15.9866 20.7341C16.5004 20.7341 17.0027 20.8865 17.43 21.1719C17.8572 21.4574 18.1902 21.8631 18.3868 22.3378C18.5834 22.8125 18.6349 23.3349 18.5346 23.8388C18.4344 24.3428 18.187 24.8057 17.8236 25.169C17.4603 25.5324 16.9974 25.7798 16.4935 25.88C15.9895 25.9803 15.4672 25.9288 14.9924 25.7322C14.5177 25.5356 14.112 25.2026 13.8265 24.7753C13.5411 24.3481 13.3887 23.8458 13.3887 23.332C13.3887 22.643 13.6624 21.9822 14.1496 21.495C14.6368 21.0078 15.2976 20.7341 15.9866 20.7341ZM12.9584 32.5039C13.21 32.5039 13.4561 32.5786 13.6654 32.7184C13.8746 32.8582 14.0377 33.057 14.134 33.2895C14.2304 33.522 14.2556 33.7779 14.2065 34.0248C14.1574 34.2716 14.0362 34.4984 13.8582 34.6763C13.6802 34.8543 13.4535 34.9755 13.2066 35.0246C12.9598 35.0737 12.7039 35.0485 12.4714 34.9522C12.2388 34.8559 12.0401 34.6928 11.9003 34.4835C11.7604 34.2742 11.6858 34.0282 11.6858 33.7765C11.6858 33.439 11.8199 33.1153 12.0585 32.8767C12.2972 32.638 12.6209 32.5039 12.9584 32.5039ZM25.5414 37.0793C25.9627 37.0796 26.3745 37.2048 26.7247 37.4391C27.0749 37.6733 27.3478 38.0062 27.5089 38.3955C27.6699 38.7849 27.7119 39.2132 27.6296 39.6264C27.5472 40.0396 27.3442 40.4192 27.0462 40.717C26.7481 41.0148 26.3685 41.2176 25.9552 41.2997C25.542 41.3818 25.1136 41.3396 24.7244 41.1783C24.3352 41.017 24.0025 40.7439 23.7684 40.3935C23.5344 40.0432 23.4094 39.6313 23.4094 39.21C23.4093 38.93 23.4643 38.6528 23.5714 38.3941C23.6785 38.1354 23.8355 37.9004 24.0336 37.7025C24.2316 37.5046 24.4667 37.3477 24.7254 37.2408C24.9841 37.1339 25.2614 37.079 25.5414 37.0793ZM16.5793 0.293956C16.836 0.292911 17.0871 0.368049 17.301 0.509854C17.5148 0.651658 17.6818 0.853749 17.7807 1.09053C17.8797 1.3273 17.9061 1.58811 17.8567 1.83992C17.8073 2.09173 17.6842 2.32321 17.5031 2.50503C17.322 2.68685 17.0911 2.81084 16.8395 2.86129C16.5879 2.91174 16.3269 2.88637 16.0898 2.78842C15.8526 2.69046 15.6498 2.52431 15.5071 2.31102C15.3645 2.09773 15.2883 1.84689 15.2883 1.59028C15.288 1.24728 15.4237 0.918149 15.6657 0.675117C15.9078 0.432086 16.2363 0.295005 16.5793 0.293956Z" fill="#F16522"/>
</svg>
